<svg width="20" height="20" viewBox="0 0 20 20" fill="none" xmlns="http://www.w3.org/2000/svg">
<path d="M9.86381 18.7276C14.7592 18.7276 18.7276 14.7592 18.7276 9.86381C18.7276 4.96846 14.7592 1 9.86381 1C4.96846 1 1 4.96846 1 9.86381C1 14.7592 4.96846 18.7276 9.86381 18.7276Z" stroke="#9F9F9F" stroke-miterlimit="22.9256"/>
<path d="M15.7872 14.5786C15.1047 13.5595 12.7114 12.8069 9.86387 12.8069C7.02609 12.8069 4.6396 13.5543 3.94763 14.5681" stroke="#9F9F9F" stroke-miterlimit="22.9256"/>
<path d="M6.27228 9.25454C7.33725 9.25454 8.20058 8.39121 8.20058 7.32624C8.20058 6.26128 7.33725 5.39795 6.27228 5.39795C5.20732 5.39795 4.34399 6.26128 4.34399 7.32624C4.34399 8.39121 5.20732 9.25454 6.27228 9.25454Z" stroke="#9F9F9F" stroke-miterlimit="22.9256"/>
<path d="M13.4482 9.25454C14.5132 9.25454 15.3765 8.39121 15.3765 7.32624C15.3765 6.26128 14.5132 5.39795 13.4482 5.39795C12.3832 5.39795 11.5199 6.26128 11.5199 7.32624C11.5199 8.39121 12.3832 9.25454 13.4482 9.25454Z" stroke="#9F9F9F" stroke-miterlimit="22.9256"/>
</svg>
