<svg width="36" height="36" viewBox="0 0 36 36" fill="none" xmlns="http://www.w3.org/2000/svg">
<circle cx="18" cy="18" r="18" fill="#394FC0"/>
<path d="M13.464 17.872C14.008 18.192 14.424 18.624 14.712 19.168C15 19.712 15.144 20.32 15.144 20.992C15.144 22.24 14.728 23.264 13.896 24.064C13.096 24.864 12.12 25.264 10.968 25.264C9.91197 25.264 9.03197 24.912 8.32797 24.208C7.62397 23.504 7.27197 22.608 7.27197 21.52C7.27197 20.976 7.36797 20.448 7.55997 19.936C7.78397 19.392 8.13597 18.704 8.61597 17.872L13.032 10.384H16.872L13.464 17.872ZM23.64 17.872C24.184 18.192 24.6 18.624 24.888 19.168C25.176 19.712 25.32 20.32 25.32 20.992C25.32 22.24 24.904 23.264 24.072 24.064C23.272 24.864 22.296 25.264 21.144 25.264C20.088 25.264 19.208 24.912 18.504 24.208C17.8 23.504 17.448 22.608 17.448 21.52C17.448 20.976 17.544 20.448 17.736 19.936C17.96 19.392 18.312 18.704 18.792 17.872L23.208 10.384L27.048 10.384L23.64 17.872Z" fill="white"/>
</svg>
