<svg width="16" height="14" viewBox="0 0 16 14" fill="none" xmlns="http://www.w3.org/2000/svg">
<path d="M0 2.70852C0 1.99018 0.30102 1.30125 0.836838 0.793307C1.37266 0.285361 2.09938 0 2.85714 0H13.1429C13.9006 0 14.6273 0.285361 15.1632 0.793307C15.699 1.30125 16 1.99018 16 2.70852V8.12556C16 8.48125 15.9261 8.83346 15.7825 9.16207C15.6389 9.49068 15.4285 9.78927 15.1632 10.0408C14.8979 10.2923 14.5829 10.4918 14.2362 10.6279C13.8896 10.764 13.5181 10.8341 13.1429 10.8341H8.78629L5.28571 13.7376C5.12374 13.8719 4.92441 13.959 4.71155 13.9887C4.4987 14.0184 4.28133 13.9893 4.08544 13.905C3.88955 13.8206 3.72343 13.6846 3.60695 13.5131C3.49046 13.3417 3.42853 13.142 3.42857 12.9381V10.8341H2.85714C2.09938 10.8341 1.37266 10.5487 0.836838 10.0408C0.30102 9.53283 0 8.84391 0 8.12556V2.70852ZM2.85714 1.08341C2.40249 1.08341 1.96645 1.25462 1.64496 1.55939C1.32347 1.86416 1.14286 2.27751 1.14286 2.70852V8.12556C1.14286 8.55657 1.32347 8.96992 1.64496 9.27469C1.96645 9.57946 2.40249 9.75067 2.85714 9.75067H4.57143V12.8904L8.35657 9.75067H13.1429C13.5975 9.75067 14.0336 9.57946 14.355 9.27469C14.6765 8.96992 14.8571 8.55657 14.8571 8.12556V2.70852C14.8571 2.27751 14.6765 1.86416 14.355 1.55939C14.0336 1.25462 13.5975 1.08341 13.1429 1.08341H2.85714Z" fill="#C0C0C0"/>
</svg>
