<svg width="25" height="14" viewBox="0 0 25 14" fill="none" xmlns="http://www.w3.org/2000/svg">
<path fill-rule="evenodd" clip-rule="evenodd" d="M12.5 1C17.6477 1 22.0699 3.3667 24 6.75089C22.0699 10.1351 17.6477 12.5018 12.5 12.5018C7.35231 12.5018 2.93014 10.1351 1 6.75089C2.93014 3.3667 7.35231 1 12.5 1Z" stroke="#A0A0A0" stroke-width="1.5" stroke-miterlimit="2.61313"/>
<path d="M12.5 11.4648C15.0881 11.4648 17.1861 9.35418 17.1861 6.75059C17.1861 4.147 15.0881 2.03638 12.5 2.03638C9.91199 2.03638 7.81396 4.147 7.81396 6.75059C7.81396 9.35418 9.91199 11.4648 12.5 11.4648Z" stroke="#A0A0A0" stroke-width="1.5" stroke-miterlimit="2.61313"/>
<path d="M12.4997 8.17309C13.2805 8.17309 13.9134 7.53633 13.9134 6.75085C13.9134 5.96537 13.2805 5.32861 12.4997 5.32861C11.7189 5.32861 11.0859 5.96537 11.0859 6.75085C11.0859 7.53633 11.7189 8.17309 12.4997 8.17309Z" stroke="#A0A0A0" stroke-width="1.5" stroke-miterlimit="2.61313"/>
</svg>
