<svg width="25" height="25" viewBox="0 0 25 25" fill="none" xmlns="http://www.w3.org/2000/svg">
<path d="M0 12.5C0 5.59644 5.59644 0 12.5 0C19.4036 0 25 5.59644 25 12.5C25 19.4036 19.4036 25 12.5 25C5.59644 25 0 19.4036 0 12.5Z" fill="#F35005"/>
<path fill-rule="evenodd" clip-rule="evenodd" d="M13.6213 17.2369H10.9821V17.2365C10.919 17.2365 10.8586 17.2007 10.8299 17.1397L8.3429 11.8369L5.86099 17.1288C5.83658 17.1921 5.77537 17.2369 5.70374 17.2369H2.53669V17.2365C2.51262 17.2365 2.48813 17.2314 2.46491 17.2204C2.38088 17.1806 2.34489 17.08 2.38453 16.9956L6.60214 8.00284C6.62655 7.9396 6.68776 7.89478 6.7594 7.89478H9.92644V7.89512C9.98947 7.89516 10.0499 7.93092 10.0786 7.99195L12.5656 13.2948L15.0475 8.00284C15.072 7.9396 15.1332 7.89478 15.2048 7.89478H18.3718V7.89512C18.3959 7.89512 18.4204 7.9003 18.4436 7.91129C18.5277 7.95107 18.5637 8.0517 18.524 8.13603L15.9048 13.7207H21.1042V13.721C21.1672 13.7211 21.2277 13.7568 21.2563 13.8179L22.7419 16.9853C22.7554 17.0097 22.7631 17.0378 22.7631 17.0677C22.7631 17.1611 22.6877 17.2369 22.5945 17.2369H13.6213Z" fill="white"/>
</svg>
