<svg width="22" height="22" viewBox="0 0 22 22" fill="none" xmlns="http://www.w3.org/2000/svg">
<path d="M0 11C0 4.92487 4.92487 0 11 0C17.0751 0 22 4.92487 22 11C22 17.0751 17.0751 22 11 22C4.92487 22 0 17.0751 0 11Z" fill="#F35005"/>
<path fill-rule="evenodd" clip-rule="evenodd" d="M11.9868 15.1686H9.66428V15.1683C9.60878 15.1682 9.55562 15.1368 9.53038 15.083L7.34178 10.4165L5.1577 15.0735C5.13622 15.1291 5.08236 15.1686 5.01932 15.1686H2.23232V15.1683C2.21113 15.1683 2.18958 15.1637 2.16915 15.154C2.0952 15.119 2.06353 15.0305 2.09841 14.9563L5.80991 7.04261C5.8314 6.98695 5.88526 6.94751 5.9483 6.94751H8.7353V6.94781C8.79076 6.94784 8.84395 6.97932 8.8692 7.03303L11.0578 11.6995L13.2418 7.04261C13.2634 6.98695 13.3172 6.94751 13.3803 6.94751H16.1672V6.94781C16.1884 6.94781 16.21 6.95238 16.2304 6.96205C16.3044 6.99705 16.336 7.08561 16.3011 7.15981L13.9963 12.0743H18.5717V12.0746C18.6272 12.0747 18.6804 12.1061 18.7056 12.1598L20.0129 14.9472C20.0248 14.9686 20.0316 14.9933 20.0316 15.0197C20.0316 15.1019 19.9652 15.1686 19.8832 15.1686H11.9868Z" fill="white"/>
</svg>
