<svg width="30" height="30" viewBox="0 0 30 30" fill="none" xmlns="http://www.w3.org/2000/svg">
<rect width="30" height="30" rx="8" fill="#F35005"/>
<path d="M20.8029 19.8565L18.5369 17.5972C19.268 16.6658 19.6647 15.5157 19.6632 14.3316C19.6632 13.2771 19.3505 12.2463 18.7647 11.3695C18.1788 10.4928 17.3462 9.80939 16.3719 9.40585C15.3977 9.00231 14.3257 8.89673 13.2915 9.10245C12.2572 9.30817 11.3072 9.81596 10.5616 10.5616C9.81596 11.3072 9.30817 12.2572 9.10245 13.2915C8.89673 14.3257 9.00231 15.3977 9.40585 16.3719C9.80938 17.3462 10.4927 18.1788 11.3695 18.7647C12.2463 19.3505 13.2771 19.6632 14.3316 19.6632C15.5157 19.6647 16.6658 19.268 17.5972 18.5369L19.8565 20.8029C19.9185 20.8653 19.9922 20.9149 20.0734 20.9487C20.1546 20.9826 20.2417 21 20.3297 21C20.4177 21 20.5048 20.9826 20.586 20.9487C20.6672 20.9149 20.7409 20.8653 20.8029 20.8029C20.8653 20.7409 20.9149 20.6672 20.9487 20.586C20.9826 20.5048 21 20.4177 21 20.3297C21 20.2417 20.9826 20.1546 20.9487 20.0734C20.9149 19.9922 20.8653 19.9185 20.8029 19.8565ZM10.3329 14.3316C10.3329 13.5407 10.5674 12.7676 11.0068 12.1101C11.4462 11.4525 12.0707 10.9399 12.8014 10.6373C13.532 10.3346 14.3361 10.2554 15.1117 10.4097C15.8874 10.564 16.5999 10.9449 17.1591 11.5041C17.7184 12.0633 18.0992 12.7758 18.2535 13.5515C18.4078 14.3272 18.3286 15.1312 18.0259 15.8619C17.7233 16.5925 17.2108 17.217 16.5532 17.6564C15.8956 18.0958 15.1225 18.3303 14.3316 18.3303C13.2711 18.3303 12.254 17.909 11.5041 17.1591C10.7542 16.4092 10.3329 15.3921 10.3329 14.3316Z" fill="white"/>
</svg>
