<svg width="268" height="43" viewBox="0 0 268 43" fill="none" xmlns="http://www.w3.org/2000/svg">
<path fill-rule="evenodd" clip-rule="evenodd" d="M51.4088 42.535H39.3516V42.5334C39.0635 42.5333 38.7875 42.3704 38.6565 42.0926L27.2944 17.9485L15.9559 42.043C15.8443 42.3309 15.5647 42.535 15.2374 42.535H0.768793V42.5334C0.658809 42.5334 0.546932 42.5098 0.440881 42.4598C0.0569601 42.2787 -0.107463 41.8205 0.0736411 41.4366L19.3418 0.492017C19.4533 0.204076 19.7329 0 20.0602 0H34.5288V0.00157498C34.8168 0.00173233 35.0929 0.164584 35.224 0.442455L46.5859 24.5864L57.9244 0.492017C58.0361 0.204076 58.3158 0 58.643 0H73.1115V0.00157498C73.2216 0.00157498 73.3334 0.0251756 73.4396 0.0752112C73.8235 0.256315 73.9879 0.714503 73.8066 1.09842L61.8411 26.5256H85.5943V26.5272C85.8822 26.5274 86.1584 26.6902 86.2894 26.9681L93.076 41.3895C93.1379 41.5005 93.1733 41.6284 93.1733 41.7646C93.1733 42.1901 92.8284 42.535 92.4029 42.535H51.4088Z" fill="#394FC0"/>
<path d="M130.39 11.3224V31.2124H126.611L116.695 19.1363V31.2124H112.148V11.3224H115.956L125.844 23.3985V11.3224H130.39ZM150.508 27.5185V31.2124H135.107V11.3224H150.138V15.0164H139.682V19.3352H148.916V22.9154H139.682V27.5185H150.508ZM183.951 11.3224L177.444 31.2124H172.5L168.124 17.7441L163.606 31.2124H158.691L152.156 11.3224H156.929L161.419 25.3022L166.107 11.3224H170.369L174.915 25.4159L179.547 11.3224H183.951ZM193.043 31.5533C191.471 31.5533 189.951 31.3403 188.483 30.914C187.015 30.4878 185.836 29.9338 184.945 29.2518L186.508 25.7852C187.361 26.4104 188.374 26.9123 189.549 27.2912C190.723 27.6701 191.898 27.8595 193.072 27.8595C194.379 27.8595 195.345 27.6653 195.97 27.277C196.595 26.8887 196.908 26.3724 196.908 25.7284C196.908 25.2548 196.723 24.8618 196.354 24.5493C195.984 24.2366 195.511 23.9857 194.933 23.7962C194.355 23.6068 193.574 23.3985 192.589 23.1711C191.074 22.8113 189.833 22.4514 188.867 22.0914C187.9 21.7316 187.072 21.1538 186.38 20.3582C185.689 19.5626 185.343 18.5017 185.343 17.1758C185.343 16.0203 185.656 14.9738 186.281 14.036C186.906 13.0984 187.848 12.3549 189.108 11.8055C190.368 11.2562 191.907 10.9814 193.725 10.9814C194.995 10.9814 196.235 11.1331 197.448 11.4362C198.66 11.7392 199.721 12.1749 200.63 12.7432L199.209 16.2382C197.372 15.1962 195.534 14.6754 193.697 14.6754C192.409 14.6754 191.457 14.8838 190.841 15.3004C190.226 15.7172 189.918 16.2665 189.918 16.9484C189.918 17.6304 190.273 18.1372 190.984 18.4687C191.694 18.8001 192.778 19.1269 194.237 19.449C195.752 19.8088 196.993 20.1688 197.959 20.5287C198.925 20.8885 199.754 21.4568 200.445 22.2335C201.137 23.0101 201.483 24.0615 201.483 25.3875C201.483 26.524 201.165 27.5612 200.531 28.4988C199.896 29.4364 198.944 30.18 197.675 30.7293C196.406 31.2786 194.862 31.5533 193.043 31.5533ZM205.517 11.3224H207.62V29.3939H218.758V31.2124H205.517V11.3224ZM222.253 11.3224H224.356V31.2124H222.253V11.3224ZM247.457 11.3224V31.2124H245.723L232.937 15.0732V31.2124H230.834V11.3224H232.568L245.382 27.4617V11.3224H247.457ZM268 29.3939V31.2124H253.935V11.3224H267.574V13.141H256.038V20.2162H266.324V22.0061H256.038V29.3939H268Z" fill="black"/>
<path d="M116.494 38.1863V42.8534H115.627V40.8533H113.213V42.8534H112.347V38.1863H113.213V40.1131H115.627V38.1863H116.494ZM119.961 42.9202C119.485 42.9202 119.056 42.8168 118.674 42.61C118.291 42.4034 117.991 42.1168 117.774 41.75C117.556 41.3834 117.447 40.9733 117.447 40.5199C117.447 40.0666 117.556 39.6565 117.774 39.2897C117.991 38.9231 118.291 38.6363 118.674 38.4297C119.056 38.2229 119.485 38.1196 119.961 38.1196C120.436 38.1196 120.865 38.2229 121.247 38.4297C121.63 38.6363 121.93 38.9219 122.148 39.2864C122.365 39.6508 122.474 40.062 122.474 40.5199C122.474 40.9777 122.365 41.3889 122.148 41.7533C121.93 42.1179 121.63 42.4034 121.247 42.61C120.865 42.8168 120.436 42.9202 119.961 42.9202ZM119.961 42.16C120.272 42.16 120.552 42.09 120.801 41.95C121.05 41.8099 121.245 41.6144 121.387 41.3632C121.53 41.1121 121.601 40.8311 121.601 40.5199C121.601 40.2088 121.53 39.9276 121.387 39.6765C121.245 39.4254 121.05 39.2298 120.801 39.0898C120.552 38.9497 120.272 38.8797 119.961 38.8797C119.649 38.8797 119.369 38.9497 119.121 39.0898C118.872 39.2298 118.676 39.4254 118.534 39.6765C118.392 39.9276 118.32 40.2088 118.32 40.5199C118.32 40.8311 118.392 41.1121 118.534 41.3632C118.676 41.6144 118.872 41.8099 119.121 41.95C119.369 42.09 119.649 42.16 119.961 42.16ZM126.508 40.4266C126.806 40.5065 127.032 40.6432 127.188 40.8366C127.344 41.03 127.421 41.271 127.421 41.5599C127.421 41.9689 127.27 42.2867 126.968 42.5134C126.666 42.7402 126.228 42.8534 125.654 42.8534H123.441V38.1863H125.528C126.052 38.1863 126.461 38.2908 126.755 38.4997C127.048 38.7085 127.195 39.0042 127.195 39.3865C127.195 39.6309 127.136 39.842 127.018 40.0198C126.9 40.1976 126.73 40.3333 126.508 40.4266ZM124.294 40.1798H125.454C125.735 40.1798 125.948 40.1243 126.095 40.0132C126.241 39.902 126.314 39.7375 126.314 39.5198C126.314 39.302 126.241 39.1363 126.095 39.023C125.948 38.9098 125.735 38.8531 125.454 38.8531H124.294V40.1798ZM125.628 42.1868C126.241 42.1868 126.548 41.9556 126.548 41.4934C126.548 41.0399 126.241 40.8133 125.628 40.8133H124.294V42.1868H125.628ZM130.568 42.9202C130.093 42.9202 129.664 42.8168 129.282 42.61C128.899 42.4034 128.599 42.1168 128.381 41.75C128.164 41.3834 128.055 40.9733 128.055 40.5199C128.055 40.0666 128.164 39.6565 128.381 39.2897C128.599 38.9231 128.899 38.6363 129.282 38.4297C129.664 38.2229 130.093 38.1196 130.568 38.1196C131.044 38.1196 131.473 38.2229 131.855 38.4297C132.237 38.6363 132.537 38.9219 132.755 39.2864C132.973 39.6508 133.082 40.062 133.082 40.5199C133.082 40.9777 132.973 41.3889 132.755 41.7533C132.537 42.1179 132.237 42.4034 131.855 42.61C131.473 42.8168 131.044 42.9202 130.568 42.9202ZM130.568 42.16C130.879 42.16 131.159 42.09 131.408 41.95C131.657 41.8099 131.853 41.6144 131.995 41.3632C132.137 41.1121 132.208 40.8311 132.208 40.5199C132.208 40.2088 132.137 39.9276 131.995 39.6765C131.853 39.4254 131.657 39.2298 131.408 39.0898C131.159 38.9497 130.879 38.8797 130.568 38.8797C130.257 38.8797 129.977 38.9497 129.728 39.0898C129.479 39.2298 129.284 39.4254 129.142 39.6765C128.999 39.9276 128.928 40.2088 128.928 40.5199C128.928 40.8311 128.999 41.1121 129.142 41.3632C129.284 41.6144 129.479 41.8099 129.728 41.95C129.977 42.09 130.257 42.16 130.568 42.16ZM136.189 42.9202C135.718 42.9202 135.292 42.8168 134.912 42.61C134.532 42.4034 134.234 42.1179 134.019 41.7533C133.803 41.3889 133.695 40.9777 133.695 40.5199C133.695 40.062 133.804 39.6508 134.022 39.2864C134.24 38.9219 134.539 38.6363 134.919 38.4297C135.299 38.2229 135.724 38.1196 136.195 38.1196C136.578 38.1196 136.927 38.1863 137.242 38.3197C137.558 38.453 137.825 38.6464 138.042 38.8997L137.482 39.4265C137.145 39.0619 136.729 38.8797 136.236 38.8797C135.916 38.8797 135.629 38.9497 135.375 39.0898C135.122 39.2298 134.924 39.4243 134.782 39.6732C134.64 39.9221 134.569 40.2042 134.569 40.5199C134.569 40.8355 134.64 41.1178 134.782 41.3667C134.924 41.6156 135.122 41.8099 135.375 41.95C135.629 42.09 135.916 42.16 136.236 42.16C136.729 42.16 137.145 41.9756 137.482 41.6066L138.042 42.14C137.825 42.3934 137.557 42.5867 137.239 42.7202C136.921 42.8534 136.571 42.9202 136.189 42.9202ZM142.183 38.9197H140.636V42.8534H139.776V38.9197H138.236V38.1863H142.183V38.9197ZM147.077 38.1863V42.8534H146.21V40.8533H143.796V42.8534H142.93V38.1863H143.796V40.1131H146.21V38.1863H147.077ZM150.544 42.9202C150.068 42.9202 149.639 42.8168 149.257 42.61C148.875 42.4034 148.575 42.1168 148.357 41.75C148.139 41.3834 148.03 40.9733 148.03 40.5199C148.03 40.0666 148.139 39.6565 148.357 39.2897C148.575 38.9231 148.875 38.6363 149.257 38.4297C149.639 38.2229 150.068 38.1196 150.544 38.1196C151.019 38.1196 151.448 38.2229 151.83 38.4297C152.213 38.6363 152.513 38.9219 152.731 39.2864C152.948 39.6508 153.057 40.062 153.057 40.5199C153.057 40.9777 152.948 41.3889 152.731 41.7533C152.513 42.1179 152.213 42.4034 151.83 42.61C151.448 42.8168 151.019 42.9202 150.544 42.9202ZM150.544 42.16C150.855 42.16 151.135 42.09 151.384 41.95C151.633 41.8099 151.828 41.6144 151.97 41.3632C152.113 41.1121 152.184 40.8311 152.184 40.5199C152.184 40.2088 152.113 39.9276 151.97 39.6765C151.828 39.4254 151.633 39.2298 151.384 39.0898C151.135 38.9497 150.855 38.8797 150.544 38.8797C150.232 38.8797 149.953 38.9497 149.704 39.0898C149.455 39.2298 149.259 39.4254 149.117 39.6765C148.975 39.9276 148.904 40.2088 148.904 40.5199C148.904 40.8311 148.975 41.1121 149.117 41.3632C149.259 41.6144 149.455 41.8099 149.704 41.95C149.953 42.09 150.232 42.16 150.544 42.16ZM154.024 38.1863H154.877V41.5L157.384 38.1863H158.191V42.8534H157.338V39.5464L154.831 42.8534H154.024V38.1863ZM156.098 37.873C155.698 37.873 155.396 37.7907 155.194 37.6263C154.992 37.4619 154.889 37.2218 154.884 36.9061H155.491C155.495 37.0707 155.549 37.1974 155.651 37.2863C155.753 37.3752 155.902 37.4195 156.098 37.4195C156.289 37.4195 156.439 37.3752 156.548 37.2863C156.657 37.1974 156.713 37.0707 156.718 36.9061H157.318C157.313 37.2174 157.208 37.4562 157.001 37.623C156.794 37.7896 156.493 37.873 156.098 37.873ZM164.432 41.7733H162.098L161.638 42.8534H160.745L162.845 38.1863H163.698L165.805 42.8534H164.898L164.432 41.7733ZM164.145 41.0932L163.265 39.0531L162.391 41.0932H164.145ZM169.685 38.9197H167.372L167.379 42.8534H166.525V38.1863H169.692L169.685 38.9197ZM172.339 38.1863C172.744 38.1863 173.096 38.253 173.396 38.3863C173.696 38.5197 173.926 38.7109 174.086 38.9598C174.246 39.2087 174.326 39.5042 174.326 39.8464C174.326 40.1843 174.246 40.4788 174.086 40.7299C173.926 40.981 173.696 41.1733 173.396 41.3066C173.096 41.44 172.744 41.5066 172.339 41.5066H171.286V42.8534H170.419V38.1863H172.339ZM172.299 40.7732C172.677 40.7732 172.964 40.6933 173.159 40.5332C173.355 40.3732 173.453 40.1443 173.453 39.8464C173.453 39.5487 173.355 39.3198 173.159 39.1598C172.964 38.9998 172.677 38.9197 172.299 38.9197H171.286V40.7732H172.299ZM178.646 42.1267V42.8534H175.146V38.1863H178.553V38.9131H176.013V40.1265H178.266V40.8399H176.013V42.1267H178.646ZM182.78 38.9197H180.467L180.473 42.8534H179.62V38.1863H182.787L182.78 38.9197ZM185.707 41.7733H183.374L182.913 42.8534H182.02L184.12 38.1863H184.974L187.081 42.8534H186.174L185.707 41.7733ZM185.42 41.0932L184.54 39.0531L183.667 41.0932H185.42ZM190.948 38.9197H189.401V42.8534H188.541V38.9197H187.001V38.1863H190.948V38.9197ZM193.788 42.9202C193.312 42.9202 192.883 42.8168 192.501 42.61C192.119 42.4034 191.819 42.1168 191.601 41.75C191.383 41.3834 191.274 40.9733 191.274 40.5199C191.274 40.0666 191.383 39.6565 191.601 39.2897C191.819 38.9231 192.119 38.6363 192.501 38.4297C192.883 38.2229 193.312 38.1196 193.788 38.1196C194.264 38.1196 194.693 38.2229 195.075 38.4297C195.457 38.6363 195.757 38.9219 195.975 39.2864C196.193 39.6508 196.302 40.062 196.302 40.5199C196.302 40.9777 196.193 41.3889 195.975 41.7533C195.757 42.1179 195.457 42.4034 195.075 42.61C194.693 42.8168 194.264 42.9202 193.788 42.9202ZM193.788 42.16C194.099 42.16 194.379 42.09 194.628 41.95C194.877 41.8099 195.073 41.6144 195.215 41.3632C195.357 41.1121 195.428 40.8311 195.428 40.5199C195.428 40.2088 195.357 39.9276 195.215 39.6765C195.073 39.4254 194.877 39.2298 194.628 39.0898C194.379 38.9497 194.099 38.8797 193.788 38.8797C193.477 38.8797 193.197 38.9497 192.948 39.0898C192.699 39.2298 192.503 39.4254 192.361 39.6765C192.219 39.9276 192.148 40.2088 192.148 40.5199C192.148 40.8311 192.219 41.1121 192.361 41.3632C192.503 41.6144 192.699 41.8099 192.948 41.95C193.197 42.09 193.477 42.16 193.788 42.16ZM199.182 38.1863C199.586 38.1863 199.939 38.253 200.239 38.3863C200.539 38.5197 200.769 38.7109 200.929 38.9598C201.089 39.2087 201.169 39.5042 201.169 39.8464C201.169 40.1843 201.089 40.4788 200.929 40.7299C200.769 40.981 200.539 41.1733 200.239 41.3066C199.939 41.44 199.586 41.5066 199.182 41.5066H198.128V42.8534H197.262V38.1863H199.182ZM199.142 40.7732C199.52 40.7732 199.806 40.6933 200.002 40.5332C200.197 40.3732 200.295 40.1443 200.295 39.8464C200.295 39.5487 200.197 39.3198 200.002 39.1598C199.806 38.9998 199.52 38.9197 199.142 38.9197H198.128V40.7732H199.142Z" fill="black"/>
</svg>
