<svg width="17" height="21" viewBox="0 0 17 21" fill="none" xmlns="http://www.w3.org/2000/svg">
<path d="M13.4219 6.31715C14.8458 6.31715 16 5.16294 16 3.73914C16 2.31535 14.8458 1.16113 13.4219 1.16113C11.9981 1.16113 10.8439 2.31535 10.8439 3.73914C10.8439 5.16294 11.9981 6.31715 13.4219 6.31715Z" stroke="#F35005" stroke-width="2" stroke-miterlimit="22.9256"/>
<path d="M11.2577 5.14038L5.74243 8.7113" stroke="#F35005" stroke-width="2" stroke-miterlimit="22.9256"/>
<path d="M3.57808 12.6907C5.00191 12.6907 6.15615 11.5365 6.15615 10.1127C6.15615 8.68888 5.00191 7.53467 3.57808 7.53467C2.15425 7.53467 1 8.68888 1 10.1127C1 11.5365 2.15425 12.6907 3.57808 12.6907Z" stroke="#F35005" stroke-width="2" stroke-miterlimit="22.9256"/>
<path d="M13.4219 19.0642C14.8458 19.0642 16 17.91 16 16.4862C16 15.0624 14.8458 13.9082 13.4219 13.9082C11.9981 13.9082 10.8439 15.0624 10.8439 16.4862C10.8439 17.91 11.9981 19.0642 13.4219 19.0642Z" stroke="#F35005" stroke-width="2" stroke-miterlimit="22.9256"/>
<path d="M11.2577 15.0848L5.74243 11.5139" stroke="#F35005" stroke-width="2" stroke-miterlimit="22.9256"/>
</svg>
